<svg width="209" height="220" viewBox="0 0 209 220" fill="none" xmlns="http://www.w3.org/2000/svg">
<circle cx="75.6475" cy="94.1754" r="42.4561" fill="#FF005C"/>
<circle cx="29.7185" cy="141.649" r="8.10526" fill="#FF005C"/>
<circle cx="75.6472" cy="4.63158" r="4.63158" fill="#FFF4A5"/>
<circle cx="196.841" cy="23.1579" r="11.5789" fill="#FF005C"/>
<circle cx="60.2088" cy="184.491" r="3.08772" fill="#60ABFB"/>
<circle cx="152.843" cy="69.4737" r="4.63158" fill="#FFF4A5"/>
<circle cx="8.10526" cy="43.6141" r="8.10526" fill="#8E91F4"/>
<circle cx="104.597" cy="211.895" r="8.10526" fill="#60ABFB"/>
<circle cx="184.879" cy="125.439" r="8.10526" fill="#A5F0E4"/>
<circle cx="110" cy="45.9298" r="8.10526" fill="#8AD3FA"/>
<circle cx="49.0175" cy="123.018" r="27.0175" fill="#F9B754"/>
<path d="M59.5019 133.958L45.1065 137.816L44.7541 125.005C44.746 124.641 44.6174 124.515 44.2964 124.399C41.5837 123.415 39.7656 121.517 39.0778 118.749C38.0671 114.677 40.2173 111.051 43.4869 109.403C46.3017 107.984 50.7968 108.465 53.356 111.703C55.6815 114.645 55.6956 118.789 53.3351 121.766C53.1137 122.045 53.1091 122.228 53.2728 122.526L59.5019 133.958Z" fill="white"/>
<path fill-rule="evenodd" clip-rule="evenodd" d="M69.2479 36.0535C79.9172 33.1947 90.884 39.5264 93.7428 50.1957L94.8 54.1412C97.6588 64.8105 91.3272 75.7772 80.6578 78.6361L59.2922 84.3609C58.7292 84.5118 58.1652 84.6371 57.6017 84.7375L52.6588 90.3619L51.1767 84.8304C43.537 83.6917 36.9239 78.1554 34.7973 70.2188L33.7402 66.2733C30.8813 55.604 37.213 44.6373 47.8823 41.7784L69.2479 36.0535Z" fill="white"/>
<path d="M63.6553 51.2333L68.608 69.7173L64.9665 70.693L62.9544 63.1839L54.6919 65.3979L56.704 72.907L53.0624 73.8827L48.1097 55.3988L51.7512 54.423L53.7498 61.8819L62.0123 59.668L60.0137 52.2091L63.6553 51.2333ZM69.8512 57.6214L73.3671 56.6793L76.3078 67.6541L72.7919 68.5962L69.8512 57.6214ZM68.7328 53.7489C68.5937 53.2299 68.6802 52.7491 68.9923 52.3066C69.3212 51.8596 69.72 51.5732 70.1888 51.4476C70.6576 51.322 71.1294 51.3751 71.6042 51.6067C72.0957 51.8339 72.4111 52.207 72.5501 52.726C72.6892 53.2451 72.6027 53.7258 72.2906 54.1684C71.9907 54.5897 71.6064 54.8631 71.1376 54.9887C70.6688 55.1143 70.1825 55.0742 69.6787 54.8682C69.1872 54.641 68.8719 54.2679 68.7328 53.7489ZM73.8768 47.7139L77.016 46.8727L80.8248 61.0873L77.6856 61.9285L73.8768 47.7139ZM80.7764 66.8336C80.1737 66.9951 79.6372 66.9684 79.1668 66.7535C78.692 66.5218 78.3828 66.1381 78.2393 65.6023C78.1002 65.0833 78.1761 64.5964 78.467 64.1416C78.7746 63.6824 79.2214 63.3742 79.8074 63.2172C80.3934 63.0602 80.9177 63.1081 81.3802 63.361C81.8595 63.6094 82.1687 63.9932 82.3078 64.5122C82.4513 65.0479 82.3838 65.5326 82.1052 65.9662C81.8221 66.383 81.3792 66.6721 80.7764 66.8336Z" fill="#68677C"/>
<circle cx="121.191" cy="144.351" r="50.1754" fill="#68677C"/>
<circle cx="141.5" cy="194.5" r="18.5" fill="#7B74C8"/>
<path d="M141.792 204.665L133.495 199.874L139.158 193.891C139.32 193.722 139.319 193.606 139.226 193.407C138.44 191.727 138.476 190.038 139.422 188.467C140.813 186.157 143.439 185.486 145.675 186.223C147.599 186.857 149.424 189.119 149.115 191.754C148.835 194.149 146.958 196.039 144.532 196.319C144.304 196.346 144.219 196.427 144.158 196.636L141.792 204.665Z" fill="white"/>
<path fill-rule="evenodd" clip-rule="evenodd" d="M113.898 110.027C103.107 107.667 92.4463 114.502 90.0865 125.293L87.6025 136.651C85.2426 147.442 92.0772 158.102 102.868 160.462L132.121 166.86L139.711 174.726L141.215 167.848L141.116 167.827C149.503 166.992 156.771 160.872 158.67 152.193L161.154 140.835C163.513 130.044 156.679 119.383 145.888 117.023L113.898 110.027Z" fill="white"/>
<path d="M113.765 126.368L109.991 143.624L106.591 142.88L108.124 135.87L100.411 134.183L98.8776 141.194L95.4779 140.45L99.2517 123.194L102.651 123.937L101.129 130.901L108.842 132.588L110.365 125.624L113.765 126.368ZM114.248 139.052C114.477 138.005 114.925 137.12 115.59 136.397C116.272 135.678 117.109 135.182 118.103 134.908C119.1 134.618 120.176 134.6 121.333 134.853C122.505 135.109 123.468 135.573 124.222 136.246C124.979 136.903 125.494 137.695 125.766 138.623C126.054 139.554 126.083 140.543 125.854 141.59C125.625 142.637 125.184 143.532 124.53 144.273C123.896 145.002 123.096 145.515 122.13 145.812C121.164 146.108 120.08 146.125 118.876 145.862C117.751 145.616 116.79 145.176 115.995 144.544C115.216 143.915 114.666 143.131 114.347 142.194C114.028 141.256 113.995 140.209 114.248 139.052ZM117.549 139.798C117.371 140.611 117.457 141.342 117.806 141.992C118.159 142.626 118.695 143.022 119.414 143.179C120.18 143.346 120.847 143.214 121.417 142.782C121.99 142.334 122.365 141.703 122.543 140.89C122.721 140.078 122.641 139.356 122.304 138.725C121.97 138.079 121.421 137.672 120.655 137.505C119.936 137.348 119.282 137.491 118.693 137.936C118.108 138.365 117.727 138.986 117.549 139.798ZM131.337 128.909L134.619 129.626L130.574 148.125L127.291 147.407L131.337 128.909ZM138.207 150.089C137.253 149.881 136.427 149.504 135.727 148.957C135.047 148.399 134.567 147.672 134.288 146.776C134.009 145.879 134.005 144.814 134.275 143.579C134.528 142.422 134.981 141.473 135.634 140.732C136.288 139.99 137.047 139.477 137.912 139.191C138.781 138.889 139.645 138.833 140.504 139.021C141.52 139.243 142.25 139.575 142.694 140.016C143.154 140.46 143.497 140.912 143.725 141.371L144.166 140.362L147.214 141.029L144.974 151.274L141.691 150.557L141.968 149.291C141.778 149.413 141.499 149.565 141.131 149.746C140.78 149.931 140.357 150.068 139.862 150.157C139.368 150.245 138.816 150.223 138.207 150.089ZM139.729 147.622C140.87 147.871 141.811 147.537 142.553 146.618L143.101 144.109C143.023 143.568 142.782 143.097 142.378 142.698C141.99 142.302 141.483 142.035 140.858 141.899C140.154 141.745 139.487 141.877 138.855 142.296C138.226 142.699 137.821 143.315 137.64 144.143C137.52 144.69 137.538 145.21 137.692 145.702C137.846 146.194 138.099 146.61 138.451 146.949C138.818 147.291 139.244 147.516 139.729 147.622ZM151.434 133.893L154.365 134.534L151.463 147.805L148.532 147.164L151.434 133.893ZM148.987 152.496C148.425 152.373 147.996 152.124 147.702 151.748C147.41 151.357 147.32 150.911 147.429 150.411C147.535 149.927 147.804 149.559 148.235 149.31C148.682 149.064 149.179 149 149.726 149.12C150.273 149.24 150.682 149.501 150.955 149.905C151.242 150.311 151.333 150.757 151.227 151.242C151.118 151.742 150.857 152.111 150.445 152.348C150.036 152.57 149.55 152.619 148.987 152.496Z" fill="#68677C"/>
</svg>
